<svg width="48" height="48" viewBox="0 0 48 48" fill="none" xmlns="http://www.w3.org/2000/svg">
<rect width="48" height="48" rx="24" fill="white"/>
<g clip-path="url(#clip0_112_12393)">
<path fill-rule="evenodd" clip-rule="evenodd" d="M25.3425 9.59048C25.1678 9.41132 24.959 9.26893 24.7285 9.17172C24.4979 9.0745 24.2502 9.02441 24 9.02441C23.7498 9.02441 23.5021 9.0745 23.2715 9.17172C23.041 9.26893 22.8322 9.41132 22.6575 9.59048L21.4613 10.8186C21.2258 11.0605 20.9294 11.2344 20.6033 11.3218C20.2773 11.4093 19.9337 11.4071 19.6088 11.3155L17.9588 10.8505C17.7179 10.7827 17.4659 10.7638 17.2177 10.7949C16.9694 10.826 16.7299 10.9065 16.5133 11.0316C16.2966 11.1567 16.1072 11.3239 15.9561 11.5234C15.8051 11.7228 15.6955 11.9505 15.6338 12.193L15.21 13.8542C15.1269 14.1813 14.9571 14.4798 14.7186 14.7184C14.48 14.957 14.1814 15.1268 13.8544 15.2099L12.1931 15.6317C11.9507 15.6934 11.723 15.803 11.5235 15.9541C11.3241 16.1051 11.1569 16.2946 11.0318 16.5112C10.9067 16.7279 10.8262 16.9674 10.7951 17.2157C10.764 17.4639 10.7829 17.7159 10.8506 17.9567L11.3156 19.6086C11.4072 19.9335 11.4094 20.2771 11.322 20.6032C11.2345 20.9292 11.0607 21.2256 10.8188 21.4611L9.59063 22.6574C9.41147 22.832 9.26909 23.0408 9.17187 23.2714C9.07465 23.5019 9.02457 23.7496 9.02457 23.9999C9.02457 24.2501 9.07465 24.4978 9.17187 24.7283C9.26909 24.9589 9.41147 25.1677 9.59063 25.3424L10.8188 26.5405C11.0603 26.7758 11.234 27.0718 11.3214 27.3975C11.4089 27.7232 11.4069 28.0665 11.3156 28.3911L10.8506 30.0411C10.7829 30.2819 10.764 30.5339 10.7951 30.7822C10.8262 31.0304 10.9067 31.2699 11.0318 31.4866C11.1569 31.7033 11.3241 31.8927 11.5235 32.0437C11.723 32.1948 11.9507 32.3044 12.1931 32.3661L13.8544 32.7899C14.1814 32.8729 14.48 33.0427 14.7186 33.2813C14.9571 33.5199 15.1269 33.8184 15.21 34.1455L15.6319 35.8067C15.6934 36.0494 15.8028 36.2772 15.9538 36.4769C16.1047 36.6766 16.2942 36.844 16.5108 36.9693C16.7275 37.0946 16.9671 37.1752 17.2155 37.2064C17.4638 37.2377 17.7159 37.2188 17.9569 37.1511L19.6088 36.6861C19.9335 36.5943 20.277 36.5918 20.6031 36.6789C20.9291 36.766 21.2256 36.9395 21.4613 37.1811L22.6575 38.4092C22.8322 38.5884 23.041 38.7308 23.2715 38.828C23.5021 38.9252 23.7498 38.9753 24 38.9753C24.2502 38.9753 24.4979 38.9252 24.7285 38.828C24.959 38.7308 25.1678 38.5884 25.3425 38.4092L26.5406 37.1811C26.7761 36.9398 27.0723 36.7665 27.398 36.6794C27.7236 36.5923 28.0668 36.5946 28.3913 36.6861L30.0413 37.1511C30.2822 37.2188 30.5343 37.2377 30.7827 37.2064C31.031 37.1752 31.2706 37.0946 31.4873 36.9693C31.704 36.844 31.8934 36.6766 32.0443 36.4769C32.1953 36.2772 32.3048 36.0494 32.3663 35.8067L32.79 34.1455C32.8731 33.8184 33.0429 33.5199 33.2815 33.2813C33.52 33.0427 33.8186 32.8729 34.1456 32.7899L35.8069 32.368C36.0495 32.3065 36.2774 32.197 36.477 32.0461C36.6767 31.8951 36.8441 31.7057 36.9694 31.489C37.0947 31.2723 37.1754 31.0327 37.2066 30.7844C37.2378 30.536 37.219 30.2839 37.1513 30.043L36.6863 28.393C36.5944 28.0682 36.5919 27.7247 36.679 27.3987C36.7662 27.0726 36.9397 26.7761 37.1813 26.5405L38.4094 25.3424C38.5885 25.1677 38.7309 24.9589 38.8281 24.7283C38.9254 24.4978 38.9754 24.2501 38.9754 23.9999C38.9754 23.7496 38.9254 23.5019 38.8281 23.2714C38.7309 23.0408 38.5885 22.832 38.4094 22.6574L37.1813 21.4611C36.9397 21.2254 36.7662 20.929 36.679 20.6029C36.5919 20.2769 36.5944 19.9333 36.6863 19.6086L37.1513 17.9586C37.219 17.7176 37.2378 17.4655 37.2066 17.2172C37.1754 16.9688 37.0947 16.7293 36.9694 16.5126C36.8441 16.2959 36.6767 16.1065 36.477 15.9555C36.2774 15.8046 36.0495 15.6951 35.8069 15.6336L34.1456 15.2099C33.8186 15.1268 33.52 14.957 33.2815 14.7184C33.0429 14.4798 32.8731 14.1813 32.79 13.8542L32.3681 12.193C32.3064 11.9505 32.1968 11.7228 32.0458 11.5234C31.8947 11.3239 31.7053 11.1567 31.4886 11.0316C31.272 10.9065 31.0324 10.826 30.7842 10.7949C30.5359 10.7638 30.284 10.7827 30.0431 10.8505L28.3931 11.3155C28.0679 11.4075 27.7239 11.4098 27.3975 11.3224C27.0711 11.2349 26.7744 11.0608 26.5388 10.8186L25.3425 9.59048ZM31.0744 20.7936C31.3429 20.5345 31.4975 20.1794 31.5042 19.8063C31.5109 19.4332 31.3691 19.0728 31.11 18.8042C30.8509 18.5357 30.4958 18.3811 30.1227 18.3744C29.7496 18.3677 29.3892 18.5095 29.1206 18.7686L21.3694 26.2536L18.9 23.788C18.6357 23.5244 18.2775 23.3766 17.9043 23.3772C17.531 23.3777 17.1733 23.5265 16.9097 23.7908C16.6461 24.0551 16.4984 24.4133 16.4989 24.7865C16.4994 25.1598 16.6482 25.5175 16.9125 25.7811L20.3606 29.2199C20.621 29.48 20.9731 29.6277 21.3412 29.6312C21.7093 29.6347 22.0641 29.4938 22.3294 29.2386L31.0744 20.7936Z" fill="#2A60F1"/>
</g>
<defs>
<clipPath id="clip0_112_12393">
<rect width="30" height="30" fill="white" transform="translate(9 9)"/>
</clipPath>
</defs>
</svg>
