<svg width="179" height="180" viewBox="0 0 179 180" fill="none" xmlns="http://www.w3.org/2000/svg">
<mask id="path-1-inside-1_852_1631" fill="white">
<path d="M132.818 165.221C133.374 166.193 133.039 167.434 132.054 167.968C121.727 173.575 110.39 177.094 98.6894 178.316C86.3161 179.609 73.8093 178.305 61.9689 174.488C50.1284 170.67 39.215 164.424 29.9266 156.148C21.1433 148.322 13.996 138.844 8.88804 128.261C8.40116 127.252 8.85369 126.049 9.87319 125.585C10.8927 125.121 12.093 125.573 12.5809 126.581C17.4544 136.65 24.2631 145.669 32.625 153.12C41.4919 161.02 51.9102 166.983 63.2135 170.627C74.5167 174.271 86.4561 175.516 98.2679 174.282C109.407 173.118 120.201 169.774 130.038 164.447C131.023 163.914 132.261 164.249 132.818 165.221Z"/>
</mask>
<path d="M132.818 165.221C133.374 166.193 133.039 167.434 132.054 167.968C121.727 173.575 110.39 177.094 98.6894 178.316C86.3161 179.609 73.8093 178.305 61.9689 174.488C50.1284 170.67 39.215 164.424 29.9266 156.148C21.1433 148.322 13.996 138.844 8.88804 128.261C8.40116 127.252 8.85369 126.049 9.87319 125.585C10.8927 125.121 12.093 125.573 12.5809 126.581C17.4544 136.65 24.2631 145.669 32.625 153.12C41.4919 161.02 51.9102 166.983 63.2135 170.627C74.5167 174.271 86.4561 175.516 98.2679 174.282C109.407 173.118 120.201 169.774 130.038 164.447C131.023 163.914 132.261 164.249 132.818 165.221Z" stroke="#2A60F1" stroke-width="4.8" mask="url(#path-1-inside-1_852_1631)"/>
<mask id="path-2-inside-2_852_1631" fill="white">
<path d="M168.996 125.433C170.016 125.895 170.471 127.098 169.986 128.107C169.095 129.962 168.14 131.786 167.123 133.575C166.57 134.549 165.322 134.86 164.361 134.285C163.4 133.709 163.09 132.465 163.642 131.491C164.581 129.835 165.464 128.149 166.29 126.434C166.776 125.425 167.975 124.971 168.996 125.433Z"/>
</mask>
<path d="M168.996 125.433C170.016 125.895 170.471 127.098 169.986 128.107C169.095 129.962 168.14 131.786 167.123 133.575C166.57 134.549 165.322 134.86 164.361 134.285C163.4 133.709 163.09 132.465 163.642 131.491C164.581 129.835 165.464 128.149 166.29 126.434C166.776 125.425 167.975 124.971 168.996 125.433Z" stroke="#2A60F1" stroke-width="4.8" mask="url(#path-2-inside-2_852_1631)"/>
<path fill-rule="evenodd" clip-rule="evenodd" d="M165.884 136.409C174.081 122.932 178.8 107.116 178.8 90.2C178.8 40.9362 138.774 1 89.4 1C40.0257 1 0 40.9362 0 90.2C0 139.464 40.0257 179.4 89.4 179.4C106.174 179.4 121.869 174.791 135.282 166.773C130.815 162.815 128 157.036 128 150.6C128 138.671 137.671 129 149.6 129C156.097 129 161.925 131.869 165.884 136.409Z" fill="white"/>
<mask id="path-4-inside-3_852_1631" fill="white">
<path d="M132.818 165.221C133.374 166.193 133.039 167.434 132.054 167.968C121.727 173.575 110.39 177.094 98.6894 178.316C86.3161 179.609 73.8093 178.305 61.9689 174.488C50.1284 170.67 39.215 164.424 29.9266 156.148C21.1433 148.322 13.996 138.844 8.88804 128.261C8.40116 127.252 8.85369 126.049 9.87319 125.585C10.8927 125.121 12.093 125.573 12.5809 126.581C17.4544 136.65 24.2631 145.669 32.625 153.12C41.4919 161.02 51.9102 166.983 63.2135 170.627C74.5167 174.271 86.4561 175.516 98.2679 174.282C109.407 173.118 120.201 169.774 130.038 164.447C131.023 163.914 132.261 164.249 132.818 165.221Z"/>
</mask>
<path d="M132.818 165.221C133.374 166.193 133.039 167.434 132.054 167.968C121.727 173.575 110.39 177.094 98.6894 178.316C86.3161 179.609 73.8093 178.305 61.9689 174.488C50.1284 170.67 39.215 164.424 29.9266 156.148C21.1433 148.322 13.996 138.844 8.88804 128.261C8.40116 127.252 8.85369 126.049 9.87319 125.585C10.8927 125.121 12.093 125.573 12.5809 126.581C17.4544 136.65 24.2631 145.669 32.625 153.12C41.4919 161.02 51.9102 166.983 63.2135 170.627C74.5167 174.271 86.4561 175.516 98.2679 174.282C109.407 173.118 120.201 169.774 130.038 164.447C131.023 163.914 132.261 164.249 132.818 165.221Z" stroke="#2A60F1" stroke-width="4.8" mask="url(#path-4-inside-3_852_1631)"/>
<mask id="path-5-inside-4_852_1631" fill="white">
<path d="M168.996 125.433C170.016 125.895 170.471 127.098 169.986 128.107C169.095 129.962 168.14 131.786 167.123 133.575C166.57 134.549 165.322 134.86 164.361 134.285C163.4 133.709 163.09 132.465 163.642 131.491C164.581 129.835 165.464 128.149 166.29 126.434C166.776 125.425 167.975 124.971 168.996 125.433Z"/>
</mask>
<path d="M168.996 125.433C170.016 125.895 170.471 127.098 169.986 128.107C169.095 129.962 168.14 131.786 167.123 133.575C166.57 134.549 165.322 134.86 164.361 134.285C163.4 133.709 163.09 132.465 163.642 131.491C164.581 129.835 165.464 128.149 166.29 126.434C166.776 125.425 167.975 124.971 168.996 125.433Z" stroke="#2A60F1" stroke-width="4.8" mask="url(#path-5-inside-4_852_1631)"/>
</svg>
