<svg width="24" height="25" viewBox="0 0 24 25" fill="none" xmlns="http://www.w3.org/2000/svg">
<path d="M16 1.5C16.2652 1.5 16.5196 1.60536 16.7071 1.79289C16.8946 1.98043 17 2.23478 17 2.5V3.5H22V9.5H19.981L22.727 17.045C22.9227 17.5526 23.0128 18.0948 22.9919 18.6384C22.9709 19.182 22.8392 19.7156 22.605 20.2066C22.3707 20.6976 22.0388 21.1356 21.6294 21.4939C21.2201 21.8522 20.7419 22.1233 20.2242 22.2905C19.7066 22.4577 19.1602 22.5175 18.6186 22.4664C18.077 22.4152 17.5515 22.2541 17.0743 21.9929C16.5971 21.7317 16.1782 21.3759 15.8432 20.9473C15.5082 20.5186 15.2642 20.0262 15.126 19.5H10.874C10.6467 20.3777 10.1282 21.1521 9.40329 21.6966C8.6784 22.2411 7.79011 22.5233 6.88389 22.4971C5.97767 22.4708 5.10721 22.1376 4.41506 21.5521C3.72291 20.9665 3.25008 20.1633 3.074 19.274C2.74993 19.1047 2.47846 18.8498 2.28911 18.5371C2.09976 18.2243 1.99977 17.8656 2 17.5V7.5C2 7.23478 2.10536 6.98043 2.29289 6.79289C2.48043 6.60536 2.73478 6.5 3 6.5H10C10.2652 6.5 10.5196 6.60536 10.7071 6.79289C10.8946 6.98043 11 7.23478 11 7.5V12.5C11 12.7652 11.1054 13.0196 11.2929 13.2071C11.4804 13.3946 11.7348 13.5 12 13.5H14C14.2652 13.5 14.5196 13.3946 14.7071 13.2071C14.8946 13.0196 15 12.7652 15 12.5V3.5H12V1.5H16ZM19 16.5C18.5747 16.5001 18.1605 16.6358 17.8176 16.8874C17.4746 17.139 17.2208 17.4934 17.093 17.899C16.9652 18.3047 16.9701 18.7405 17.1069 19.1432C17.2436 19.5459 17.5052 19.8946 17.8537 20.1385C18.2021 20.3824 18.6192 20.5088 19.0444 20.4995C19.4696 20.4902 19.8808 20.3456 20.2182 20.0866C20.5556 19.8277 20.8017 19.4679 20.9207 19.0596C21.0397 18.6513 21.0255 18.2157 20.88 17.816L20.863 17.772C20.7165 17.3971 20.4603 17.0752 20.1279 16.8483C19.7956 16.6213 19.4025 16.5 19 16.5ZM7 16.5C6.46957 16.5 5.96086 16.7107 5.58579 17.0858C5.21071 17.4609 5 17.9696 5 18.5C5 19.0304 5.21071 19.5391 5.58579 19.9142C5.96086 20.2893 6.46957 20.5 7 20.5C7.53043 20.5 8.03914 20.2893 8.41421 19.9142C8.78929 19.5391 9 19.0304 9 18.5C9 17.9696 8.78929 17.4609 8.41421 17.0858C8.03914 16.7107 7.53043 16.5 7 16.5ZM9 8.5H4V10.5H9V8.5ZM20 5.5H17V7.5H20V5.5Z" fill="#2A60F1"/>
</svg>
