<svg width="28" height="28" viewBox="0 0 28 28" fill="none" xmlns="http://www.w3.org/2000/svg">
<circle cx="14" cy="14" r="14" fill="#F39C12" fill-opacity="0.1"/>
<path fill-rule="evenodd" clip-rule="evenodd" d="M14 6.83301C13.1601 6.83301 12.3547 7.16664 11.7608 7.7605C11.167 8.35437 10.8333 9.15982 10.8333 9.99967C10.8333 10.8395 11.167 11.645 11.7608 12.2388C12.3547 12.8327 13.1601 13.1663 14 13.1663C14.8398 13.1663 15.6453 12.8327 16.2392 12.2388C16.833 11.645 17.1667 10.8395 17.1667 9.99967C17.1667 9.15982 16.833 8.35437 16.2392 7.7605C15.6453 7.16664 14.8398 6.83301 14 6.83301ZM11.8333 9.99967C11.8333 9.42504 12.0616 8.87394 12.4679 8.46761C12.8743 8.06128 13.4254 7.83301 14 7.83301C14.5746 7.83301 15.1257 8.06128 15.5321 8.46761C15.9384 8.87394 16.1667 9.42504 16.1667 9.99967C16.1667 10.5743 15.9384 11.1254 15.5321 11.5317C15.1257 11.9381 14.5746 12.1663 14 12.1663C13.4254 12.1663 12.8743 11.9381 12.4679 11.5317C12.0616 11.1254 11.8333 10.5743 11.8333 9.99967ZM14 14.1663C12.458 14.1663 11.0367 14.517 9.984 15.109C8.94666 15.693 8.16666 16.577 8.16666 17.6663V17.7343C8.166 18.509 8.16533 19.481 9.018 20.1757C9.43733 20.517 10.0247 20.7603 10.818 20.9203C11.6127 21.0817 12.6493 21.1663 14 21.1663C15.3507 21.1663 16.3867 21.0817 17.1827 20.9203C17.976 20.7603 18.5627 20.517 18.9827 20.1757C19.8353 19.481 19.834 18.509 19.8333 17.7343V17.6663C19.8333 16.577 19.0533 15.693 18.0167 15.109C16.9633 14.517 15.5427 14.1663 14 14.1663ZM9.16666 17.6663C9.16666 17.099 9.58133 16.483 10.474 15.981C11.3513 15.4877 12.5967 15.1663 14.0007 15.1663C15.4033 15.1663 16.6487 15.4877 17.526 15.981C18.4193 16.483 18.8333 17.099 18.8333 17.6663C18.8333 18.5383 18.8067 19.029 18.3507 19.3997C18.104 19.601 17.6907 19.7977 16.984 19.9403C16.2793 20.083 15.316 20.1663 14 20.1663C12.684 20.1663 11.72 20.083 11.016 19.9403C10.3093 19.7977 9.896 19.601 9.64933 19.4003C9.19333 19.029 9.16666 18.5383 9.16666 17.6663Z" fill="#F39C12"/>
</svg>
