<svg width="88" height="88" viewBox="0 0 88 88" fill="none" xmlns="http://www.w3.org/2000/svg">
<g filter="url(#filter0_d_146_3509)">
<rect x="20" y="12" width="48" height="48" rx="24" fill="#2A60F1" shape-rendering="crispEdges"/>
<path d="M48.6666 23.167C48.9761 23.167 49.2728 23.2899 49.4916 23.5087C49.7104 23.7275 49.8333 24.0242 49.8333 24.3337V25.5003H55.6666V32.5003H53.3111L56.5148 41.3017C56.7443 41.894 56.8504 42.527 56.8267 43.1618C56.803 43.7966 56.6499 44.4198 56.3769 44.9934C56.1038 45.567 55.7165 46.0788 55.2388 46.4974C54.761 46.916 54.2028 47.2327 53.5983 47.4281C52.9938 47.6234 52.3559 47.6933 51.7234 47.6334C51.091 47.5735 50.4775 47.3852 49.9204 47.0799C49.3634 46.7746 48.8745 46.3587 48.4838 45.8579C48.093 45.357 47.8087 44.7816 47.6481 44.167H42.6863C42.4212 45.1909 41.8162 46.0945 40.9705 46.7297C40.1248 47.3649 39.0884 47.6942 38.0312 47.6636C36.9739 47.6329 35.9584 47.2442 35.1509 46.5611C34.3434 45.878 33.7917 44.9409 33.5863 43.9033C33.2082 43.7058 32.8915 43.4085 32.6706 43.0436C32.4497 42.6787 32.333 42.2602 32.3333 41.8337V30.167C32.3333 29.8576 32.4562 29.5608 32.675 29.342C32.8938 29.1232 33.1906 29.0003 33.5 29.0003H41.6666C41.9761 29.0003 42.2728 29.1232 42.4916 29.342C42.7104 29.5608 42.8333 29.8576 42.8333 30.167V36.0003C42.8333 36.3097 42.9562 36.6065 43.175 36.8253C43.3938 37.0441 43.6906 37.167 44 37.167H46.3333C46.6427 37.167 46.9395 37.0441 47.1583 36.8253C47.3771 36.6065 47.5 36.3097 47.5 36.0003V25.5003H44V23.167H48.6666ZM38.1666 40.667C37.5478 40.667 36.9543 40.9128 36.5167 41.3504C36.0791 41.788 35.8333 42.3815 35.8333 43.0003C35.8333 43.6192 36.0791 44.2127 36.5167 44.6502C36.9543 45.0878 37.5478 45.3337 38.1666 45.3337C38.7855 45.3337 39.379 45.0878 39.8166 44.6502C40.2541 44.2127 40.5 43.6192 40.5 43.0003C40.5 42.3815 40.2541 41.788 39.8166 41.3504C39.379 40.9128 38.7855 40.667 38.1666 40.667ZM52.1666 40.6658C51.6704 40.666 51.1872 40.8243 50.7871 41.1178C50.3871 41.4113 50.091 41.8247 49.9419 42.298C49.7927 42.7713 49.7984 43.2797 49.958 43.7496C50.1176 44.2194 50.4228 44.6261 50.8293 44.9107C51.2358 45.1953 51.7224 45.3428 52.2185 45.3319C52.7146 45.3211 53.1943 45.1523 53.5879 44.8502C53.9815 44.5481 54.2686 44.1284 54.4075 43.6521C54.5463 43.1757 54.5297 42.6674 54.36 42.2012L54.3401 42.1498C54.1691 41.7127 53.8701 41.3374 53.4823 41.0728C53.0946 40.8083 52.636 40.6669 52.1666 40.667M50.8285 32.5003H49.8333V36.0003C49.8333 36.9286 49.4646 37.8188 48.8082 38.4752C48.1518 39.1316 47.2616 39.5003 46.3333 39.5003H44C43.0717 39.5003 42.1815 39.1316 41.5251 38.4752C40.8687 37.8188 40.5 36.9286 40.5 36.0003H34.6666V39.9133C35.2276 39.2781 35.9509 38.8075 36.759 38.5521C37.5671 38.2966 38.4294 38.2659 39.2536 38.4633C40.0778 38.6606 40.8327 39.0786 41.4375 39.6723C42.0422 40.2661 42.4739 41.0132 42.6863 41.8337H47.647C47.9404 40.6961 48.6522 39.711 49.6401 39.0752C50.628 38.4394 51.8193 38.1996 52.9763 38.4037L50.8285 32.5003ZM40.5 31.3337H34.6666V33.667H40.5V31.3337ZM53.3333 27.8337H49.8333V30.167H53.3333V27.8337Z" fill="white"/>
</g>
<defs>
<filter id="filter0_d_146_3509" x="0" y="0" width="88" height="88" filterUnits="userSpaceOnUse" color-interpolation-filters="sRGB">
<feFlood flood-opacity="0" result="BackgroundImageFix"/>
<feColorMatrix in="SourceAlpha" type="matrix" values="0 0 0 0 0 0 0 0 0 0 0 0 0 0 0 0 0 0 127 0" result="hardAlpha"/>
<feOffset dy="8"/>
<feGaussianBlur stdDeviation="10"/>
<feComposite in2="hardAlpha" operator="out"/>
<feColorMatrix type="matrix" values="0 0 0 0 0.791667 0 0 0 0 0.848199 0 0 0 0 1 0 0 0 1 0"/>
<feBlend mode="normal" in2="BackgroundImageFix" result="effect1_dropShadow_146_3509"/>
<feBlend mode="normal" in="SourceGraphic" in2="effect1_dropShadow_146_3509" result="shape"/>
</filter>
</defs>
</svg>
