<svg width="428" height="197" viewBox="0 0 428 197" fill="none" xmlns="http://www.w3.org/2000/svg">
<g clip-path="url(#clip0_18_128)">
<rect width="428" height="197" fill="url(#paint0_radial_18_128)"/>
<path opacity="0.5" d="M-12.0484 239C-12.0484 237.646 131.837 120.56 131.837 120.56C131.837 120.56 84.8807 50.1366 30.0548 19.6033L-19 45.9506" stroke="white" stroke-opacity="0.37" stroke-width="0.5206" stroke-miterlimit="10" stroke-linecap="round" stroke-linejoin="round" stroke-dasharray="2.08 2.08"/>
<path opacity="0.5" d="M183.646 145.922V152.57L150.987 198.74C150.987 198.74 125.541 189.383 124.492 188.275C123.443 187.167 103.244 163.774 103.244 163.774L89.3406 164.759" stroke="white" stroke-opacity="0.37" stroke-width="0.5206" stroke-miterlimit="10" stroke-linecap="round" stroke-linejoin="round" stroke-dasharray="2.08 2.08"/>
<path opacity="0.5" d="M228.766 157.742L188.237 149.985L183.121 171.408" stroke="white" stroke-opacity="0.37" stroke-width="0.5206" stroke-miterlimit="10" stroke-linecap="round" stroke-linejoin="round" stroke-dasharray="2.08 2.08"/>
<path opacity="0.5" d="M134.853 191.722C134.853 191.722 177.743 157.372 177.35 156.88C176.956 156.387 142.985 121.545 142.985 121.545" stroke="white" stroke-opacity="0.37" stroke-width="0.5206" stroke-miterlimit="10" stroke-linecap="round" stroke-linejoin="round" stroke-dasharray="2.08 2.08"/>
<path opacity="0.5" d="M7.75684 109.726L15.1019 119.083L23.6275 112.434L73.0758 168.207" stroke="white" stroke-opacity="0.37" stroke-width="0.5206" stroke-miterlimit="10" stroke-linecap="round" stroke-linejoin="round" stroke-dasharray="2.08 2.08"/>
<path d="M203.503 -40.4431C202.716 -39.7043 202.716 -38.4732 203.634 -37.7345L237.212 -7.9398L241.934 27.2721L232.359 67.5318L198.781 34.5361L206.782 27.149C207.569 26.4102 207.569 25.1791 206.782 24.4404C205.995 23.7016 204.684 23.7016 203.897 24.4404L182.124 44.5087L134.774 -2.15324C133.987 -2.89195 132.675 -2.89194 131.888 -2.27634C131.101 -1.53763 131.101 -0.306454 131.757 0.432259L179.632 47.5866L175.959 54.9737L138.578 86.2458L106.443 50.5415C106.312 50.4183 106.312 50.2952 106.181 50.049C106.049 49.9259 105.918 49.8027 105.656 49.6796L82.0467 23.4554C81.6532 23.086 81.1285 22.8398 80.6039 22.7167C80.0792 22.7167 79.5546 22.8398 79.1611 23.2092L38.1072 56.4511C35.2217 58.7904 34.8282 62.7302 37.1891 65.4388L52.9286 84.1528C55.2895 86.9845 59.4867 87.477 62.6346 85.2608L104.213 53.8656L135.43 88.7082L42.1733 166.642L31.5491 154.207L61.7165 129.953C66.3072 126.259 66.963 119.857 63.1593 115.302L32.8607 79.8436C32.4673 79.4743 32.0738 79.228 31.5491 79.1049L13.0552 77.0119C12.0059 76.8888 10.9566 77.6275 10.8254 78.7356C10.6943 79.8436 11.4813 80.7055 12.6617 80.8286L30.3686 82.7985L39.2877 93.1404L4.92313 121.458C2.82453 123.181 2.5622 126.259 4.26732 128.352L39.55 169.474L-3.34011 205.301C-4.12708 206.04 -4.25825 207.271 -3.47127 208.01C-3.07778 208.379 -2.55313 208.626 -1.89732 208.626C-1.37267 208.626 -0.979183 208.502 -0.585696 208.133L72.7341 146.82L177.926 182.524L175.041 195.821C174.779 196.806 175.566 197.914 176.615 198.037C176.746 198.037 176.877 198.037 177.008 198.037C177.926 198.037 178.845 197.422 178.976 196.56L193.797 129.337C194.059 128.352 193.272 127.244 192.223 127.121C191.174 126.875 189.993 127.614 189.862 128.599L178.713 178.708L76.1444 143.865L86.8997 134.878C88.4736 137.094 92.2773 141.28 98.8355 141.28C99.0978 141.28 99.229 141.28 99.4913 141.28C99.8848 141.28 100.409 141.157 100.672 140.787L107.886 135.247C108.804 134.631 108.935 133.4 108.148 132.538C107.492 131.676 106.181 131.553 105.262 132.292L98.5731 137.463C93.4578 137.34 90.7034 133.646 89.9164 132.415L157.072 76.2732L180.55 101.389C182.517 103.482 185.403 104.59 188.288 104.59C190.649 104.59 193.01 103.852 194.978 102.251L203.897 94.9872C205.995 93.2635 207.307 90.9243 207.438 88.3388C207.569 85.7533 206.651 83.1678 204.815 81.3211L180.287 56.0818L183.96 48.5716L196.027 37.4909L231.441 72.3334L223.046 107.792C222.784 108.776 223.44 109.885 224.62 110.131C224.751 110.131 224.883 110.131 225.014 110.131C225.932 110.131 226.85 109.515 226.981 108.653L246 28.1339C246 27.8877 246 27.6414 246 27.5183L241.147 -8.6785C241.147 -9.17097 240.884 -9.54034 240.491 -9.78658L206.258 -40.0737C205.602 -41.3049 204.29 -41.1818 203.503 -40.4431ZM60.2737 82.5522C58.9621 83.4141 57.257 83.1678 56.3388 82.0598L40.5993 63.3458C39.6812 62.2377 39.8123 60.5141 40.9928 59.6522L80.4727 27.6414L101.721 51.2802L60.2737 82.5522ZM7.28405 125.89C6.89057 125.397 6.89056 124.782 7.41521 124.289L41.6486 96.0953L60.2737 118.01C62.6346 120.842 62.2411 124.905 59.3556 127.244L29.1882 151.375L7.28405 125.89ZM201.798 83.7834C202.978 84.8915 203.503 86.492 203.372 87.9695C203.241 89.57 202.454 90.9243 201.273 92.0323L192.354 99.2964C189.862 101.389 185.927 101.143 183.698 98.6808L160.22 73.5646L177.795 58.9135L201.798 83.7834Z" fill="white" fill-opacity="0.05"/>
<path opacity="0.5" d="M212.952 250C212.952 248.646 356.837 131.56 356.837 131.56C356.837 131.56 309.881 61.1366 255.055 30.6033L206 56.9506" stroke="white" stroke-opacity="0.37" stroke-width="0.5206" stroke-miterlimit="10" stroke-linecap="round" stroke-linejoin="round" stroke-dasharray="2.08 2.08"/>
<path opacity="0.5" d="M408.646 156.922V163.57L375.987 209.74C375.987 209.74 350.541 200.383 349.492 199.275C348.443 198.167 328.244 174.774 328.244 174.774L314.341 175.759" stroke="white" stroke-opacity="0.37" stroke-width="0.5206" stroke-miterlimit="10" stroke-linecap="round" stroke-linejoin="round" stroke-dasharray="2.08 2.08"/>
<path opacity="0.5" d="M453.766 168.742L413.237 160.985L408.121 182.408" stroke="white" stroke-opacity="0.37" stroke-width="0.5206" stroke-miterlimit="10" stroke-linecap="round" stroke-linejoin="round" stroke-dasharray="2.08 2.08"/>
<path opacity="0.5" d="M359.853 202.722C359.853 202.722 402.743 168.372 402.35 167.88C401.956 167.387 367.985 132.545 367.985 132.545" stroke="white" stroke-opacity="0.37" stroke-width="0.5206" stroke-miterlimit="10" stroke-linecap="round" stroke-linejoin="round" stroke-dasharray="2.08 2.08"/>
<path opacity="0.5" d="M232.757 120.726L240.102 130.083L248.628 123.434L298.076 179.207" stroke="white" stroke-opacity="0.37" stroke-width="0.5206" stroke-miterlimit="10" stroke-linecap="round" stroke-linejoin="round" stroke-dasharray="2.08 2.08"/>
<path d="M428.503 -29.4431C427.716 -28.7043 427.716 -27.4732 428.634 -26.7345L462.212 3.0602L466.934 38.2721L457.359 78.5318L423.781 45.5361L431.782 38.149C432.569 37.4102 432.569 36.1791 431.782 35.4404C430.995 34.7016 429.684 34.7016 428.897 35.4404L407.124 55.5087L359.774 8.84676C358.987 8.10805 357.675 8.10806 356.888 8.72366C356.101 9.46236 356.101 10.6936 356.757 11.4323L404.632 58.5866L400.959 65.9737L363.578 97.2458L331.443 61.5415C331.312 61.4183 331.312 61.2952 331.181 61.049C331.049 60.9259 330.918 60.8027 330.656 60.6796L307.047 34.4554C306.653 34.086 306.129 33.8398 305.604 33.7167C305.079 33.7167 304.555 33.8398 304.161 34.2092L263.107 67.4511C260.222 69.7904 259.828 73.7302 262.189 76.4388L277.929 95.1528C280.29 97.9845 284.487 98.477 287.635 96.2608L329.213 64.8656L360.43 99.7082L267.173 177.642L256.549 165.207L286.716 140.953C291.307 137.259 291.963 130.857 288.159 126.302L257.861 90.8436C257.467 90.4743 257.074 90.228 256.549 90.1049L238.055 88.0119C237.006 87.8888 235.957 88.6275 235.825 89.7356C235.694 90.8436 236.481 91.7055 237.662 91.8286L255.369 93.7985L264.288 104.14L229.923 132.458C227.825 134.181 227.562 137.259 229.267 139.352L264.55 180.474L221.66 216.301C220.873 217.04 220.742 218.271 221.529 219.01C221.922 219.379 222.447 219.626 223.103 219.626C223.627 219.626 224.021 219.502 224.414 219.133L297.734 157.82L402.926 193.524L400.041 206.821C399.779 207.806 400.566 208.914 401.615 209.037C401.746 209.037 401.877 209.037 402.008 209.037C402.926 209.037 403.845 208.422 403.976 207.56L418.797 140.337C419.059 139.352 418.272 138.244 417.223 138.121C416.174 137.875 414.993 138.614 414.862 139.599L403.713 189.708L301.144 154.865L311.9 145.878C313.474 148.094 317.277 152.28 323.835 152.28C324.098 152.28 324.229 152.28 324.491 152.28C324.885 152.28 325.409 152.157 325.672 151.787L332.886 146.247C333.804 145.631 333.935 144.4 333.148 143.538C332.492 142.676 331.181 142.553 330.262 143.292L323.573 148.463C318.458 148.34 315.703 144.646 314.916 143.415L382.072 87.2732L405.55 112.389C407.517 114.482 410.403 115.59 413.288 115.59C415.649 115.59 418.01 114.852 419.978 113.251L428.897 105.987C430.995 104.264 432.307 101.924 432.438 99.3388C432.569 96.7533 431.651 94.1678 429.815 92.3211L405.287 67.0818L408.96 59.5716L421.027 48.4909L456.441 83.3334L448.046 118.792C447.784 119.776 448.44 120.885 449.62 121.131C449.751 121.131 449.883 121.131 450.014 121.131C450.932 121.131 451.85 120.515 451.981 119.653L471 39.1339C471 38.8877 471 38.6414 471 38.5183L466.147 2.3215C466.147 1.82903 465.884 1.45966 465.491 1.21342L431.258 -29.0737C430.602 -30.3049 429.29 -30.1818 428.503 -29.4431ZM285.274 93.5522C283.962 94.4141 282.257 94.1678 281.339 93.0598L265.599 74.3458C264.681 73.2377 264.812 71.5141 265.993 70.6522L305.473 38.6414L326.721 62.2802L285.274 93.5522ZM232.284 136.89C231.891 136.397 231.891 135.782 232.415 135.289L266.649 107.095L285.274 129.01C287.635 131.842 287.241 135.905 284.356 138.244L254.188 162.375L232.284 136.89ZM426.798 94.7834C427.978 95.8915 428.503 97.492 428.372 98.9695C428.241 100.57 427.454 101.924 426.273 103.032L417.354 110.296C414.862 112.389 410.927 112.143 408.698 109.681L385.22 84.5646L402.795 69.9135L426.798 94.7834Z" fill="white" fill-opacity="0.05"/>
</g>
<defs>
<radialGradient id="paint0_radial_18_128" cx="0" cy="0" r="1" gradientUnits="userSpaceOnUse" gradientTransform="translate(214 98.5) rotate(90) scale(216.817 471.053)">
<stop stop-color="#2A60F1"/>
<stop offset="1" stop-color="#18378B"/>
</radialGradient>
<clipPath id="clip0_18_128">
<path d="M0 0H428V182C428 190.284 421.284 197 413 197H15C6.71574 197 0 190.284 0 182V0Z" fill="white"/>
</clipPath>
</defs>
</svg>
