<svg width="141" height="56" viewBox="0 0 141 56" fill="none" xmlns="http://www.w3.org/2000/svg">
<path d="M0.563773 13.7486V32.6303C3.12931 29.3634 8.03891 23.6047 10.3091 23.937V1.62231L0.563773 13.7486Z" fill="white"/>
<path d="M0.563772 50.3491H10.3091C8.68491 44.812 8.73659 33.627 21.9371 33.184L28.4709 23.3833C20.9589 22.5712 5.02671 24.1585 1.39434 37.0046C0.563773 39.3118 -0.765141 45.2107 0.563772 50.3491Z" fill="white"/>
<path d="M12.3579 43.2062C12.2102 41.6743 13.72 37.8352 19.1686 35.8418L29.6891 50.3491H17.7289L12.3579 43.2062Z" fill="white"/>
<path d="M28.1385 36.0645C28.6553 36.9504 29.6889 38.9105 29.6889 39.6636C29.6889 40.6049 28.2492 49.6858 33.3434 50.018C38.4376 50.3503 38.7698 48.6338 39.988 47.7478C41.2061 46.8619 40.0987 49.3536 43.0887 49.6858C46.0788 50.018 50.0487 49.7619 48.0722 45.6991C46.0788 41.6016 46.5218 39.7743 48.0722 37.0058C48.5993 36.0645 49.3729 32.3994 44.8606 32.7975C39.988 33.2275 36.7764 31.5794 39.6004 37.781C40.1725 39.7005 40.7632 42.7367 38.659 44.3148C35.1706 46.9311 36.6103 39.5529 36.4996 36.6181C36.4996 35.1785 35.3921 32.0457 32.7343 32.4653C29.2459 33.0161 27.2525 32.4653 28.1385 36.0645Z" fill="white"/>
<path d="M50.4539 26.485C49.974 26.8357 49.0918 28.0022 49.8448 29.4197C50.7861 31.1916 51.7274 30.361 51.2844 42.7088C50.0663 45.6989 48.8814 48.7332 50.3432 49.1319C52.7241 49.7812 57.7075 49.9625 59.0918 49.1319C60.3653 48.3678 58.7042 44.4253 58.0398 42.5427V29.4197C57.9106 28.2569 57.5968 26.4059 55.4373 26.0974C53.1117 25.7652 51.4505 25.9867 50.4539 26.485Z" fill="white"/>
<path d="M61.6935 33.3484C60.9367 33.4591 59.8114 34.2833 60.9183 36.8922C62.4687 40.5467 62.1918 44.2012 60.9183 46.0838C59.6448 47.9664 60.6968 49.7937 64.0191 49.7937C67.3414 49.7937 71.9925 49.9044 69.9438 46.0838C68.3048 43.0273 68.5595 37.8704 68.8918 35.674C68.7256 34.2713 67.0534 31.8423 61.6935 33.3484Z" fill="white"/>
<path d="M68.5042 28.5864C68.5042 30.5742 66.8928 32.1856 64.905 32.1856C62.9173 32.1856 61.3059 30.5742 61.3059 28.5864C61.3059 26.5987 62.9173 24.9873 64.905 24.9873C66.8928 24.9873 68.5042 26.5987 68.5042 28.5864Z" fill="white"/>
<path d="M80.6732 26.7898C80.6732 26.4645 81.5299 26.3018 83.2433 26.3018C83.8288 26.3018 84.5012 26.3452 85.2602 26.4319C86.041 26.497 86.4314 26.5946 86.4314 26.7247V43.869H87.57C88.1122 43.869 88.47 44.357 88.6436 45.333C88.6869 45.6149 88.7086 46.0053 88.7086 46.5041C88.7086 46.9813 88.5568 47.5668 88.2532 48.2609C87.8194 49.2151 87.1254 49.6923 86.1711 49.6923C85.4554 49.6923 84.8156 49.5513 84.2517 49.2693C83.7095 48.9874 83.3408 48.6946 83.1457 48.391L82.8529 47.9681C81.66 49.1175 80.1636 49.6923 78.3635 49.6923C76.5634 49.6923 75.0235 48.944 73.7439 47.4476C72.4643 45.9511 71.8246 43.869 71.8246 41.2014C71.8246 38.5121 72.4969 36.4409 73.8415 34.9878C75.1862 33.5131 76.867 32.7757 78.884 32.7757C79.4696 32.7757 80.066 32.8407 80.6732 32.9709V26.7898ZM79.5997 37.9808C78.3852 37.9808 77.7779 39.076 77.7779 41.2665C77.7779 42.3726 77.9514 43.175 78.2984 43.6739C78.6454 44.151 79.0249 44.3896 79.437 44.3896C79.8708 44.3896 80.2828 44.2052 80.6732 43.8365V38.3061C80.3045 38.0892 79.9467 37.9808 79.5997 37.9808ZM93.212 37.5579C92.6047 36.4735 92.3011 35.5951 92.3011 34.9228C92.3011 34.2288 92.4855 33.7842 92.8541 33.589C94.0904 33.0468 95.782 32.7757 97.9291 32.7757C100.098 32.7757 101.627 33.2853 102.516 34.3047C103.405 35.3023 103.85 36.7879 103.85 38.7615V43.9016H104.956C105.325 43.9016 105.607 44.1185 105.802 44.5522C106.019 44.986 106.127 45.5824 106.127 46.3415C106.127 47.1006 105.932 47.8488 105.542 48.5862C105.173 49.3236 104.663 49.6923 104.013 49.6923C102.841 49.6923 101.898 49.3778 101.182 48.7488C100.857 48.4886 100.608 48.1741 100.434 47.8054C99.4364 49.0633 97.8857 49.6923 95.782 49.6923C94.1988 49.6923 92.865 49.1284 91.7806 48.0006C90.6962 46.8728 90.154 45.539 90.154 43.9992C90.154 40.464 92.2686 38.6965 96.4977 38.6965H98.287V38.3712C98.287 37.8073 98.1894 37.4494 97.9942 37.2976C97.8207 37.1241 97.3978 37.0373 96.7254 37.0373C95.9013 37.0373 94.7302 37.2109 93.212 37.5579ZM95.8146 43.5437C95.8146 44.0209 95.9447 44.3896 96.2049 44.6498C96.4652 44.8884 96.7905 45.0077 97.1809 45.0077C97.593 45.0077 97.9617 44.845 98.287 44.5197V42.0147H97.3761C96.3351 42.0147 95.8146 42.5244 95.8146 43.5437ZM108.977 43.5112C110.734 44.5739 112.122 45.1053 113.141 45.1053C113.792 45.1053 114.117 44.8775 114.117 44.4221C114.117 44.0968 113.553 43.6739 112.425 43.1533C109.714 42.0473 108.359 40.2363 108.359 37.7205C108.359 36.1156 108.944 34.8902 110.116 34.0444C111.287 33.1986 112.686 32.7757 114.312 32.7757C115.961 32.7757 117.349 32.9492 118.476 33.2962C119.626 33.6432 120.201 34.0986 120.201 34.6625C120.201 35.1397 119.962 35.7686 119.485 36.5494C119.029 37.3301 118.715 37.753 118.541 37.8181C117.609 37.2976 116.6 37.0373 115.516 37.0373C114.93 37.0373 114.638 37.2434 114.638 37.6555C114.638 37.9157 114.746 38.1434 114.963 38.3386C115.201 38.5121 115.624 38.7399 116.232 39.0218C116.839 39.282 117.338 39.5206 117.728 39.7375C118.14 39.9544 118.596 40.258 119.094 40.6484C120.135 41.4725 120.656 42.5461 120.656 43.869C120.656 45.6041 120.081 47.0138 118.932 48.0982C117.782 49.1609 116.047 49.6923 113.727 49.6923C112.187 49.6923 110.788 49.432 109.53 48.9115C108.272 48.391 107.643 47.6753 107.643 46.7644C107.643 46.1571 107.784 45.5173 108.066 44.845C108.37 44.1727 108.673 43.7281 108.977 43.5112ZM128.698 49.1392C128.698 49.3344 127.787 49.432 125.965 49.432C124.165 49.432 123.265 49.2802 123.265 48.9766V26.6922C123.265 26.5404 123.601 26.4319 124.273 26.3669C124.946 26.3018 125.51 26.2693 125.965 26.2693C127.787 26.2693 128.698 26.4645 128.698 26.8549V33.3612C129.912 32.9925 130.834 32.8082 131.463 32.8082C133.111 32.8082 134.412 33.2528 135.367 34.142C136.321 35.0095 136.798 36.6361 136.798 39.0218V49.1067C136.798 49.3019 135.952 49.3995 134.261 49.3995C132.352 49.3344 131.398 49.226 131.398 49.0742V39.5098C131.398 38.4471 131.051 37.9157 130.357 37.9157C129.88 37.9157 129.327 38.1434 128.698 38.5989V49.1392Z" fill="white"/>
</svg>
