<svg width="101" height="111" viewBox="0 0 101 111" fill="none" xmlns="http://www.w3.org/2000/svg">
<path d="M50.5 100C78.1142 100 100.5 77.6142 100.5 50C100.5 22.3858 78.1142 0 50.5 0C22.8858 0 0.5 22.3858 0.5 50C0.5 77.6142 22.8858 100 50.5 100Z" fill="url(#paint0_linear_153_5426)"/>
<path d="M49.7134 28C41.3025 28 33.2361 31.3412 27.2887 37.2887C21.3412 43.2361 18 51.3025 18 59.7134C18 82.9911 49.7134 104.786 49.7134 104.786C49.7134 104.786 81.4269 83.3241 81.4269 59.7134C81.4269 51.3025 78.0857 43.2361 72.1382 37.2887C66.1908 31.3412 58.1244 28 49.7134 28ZM49.7134 71.606C47.2435 71.606 44.829 70.8739 42.7748 69.5024C40.7207 68.1308 39.1192 66.1812 38.1725 63.8998C37.2259 61.6185 36.9766 59.1078 37.4562 56.6849C37.9357 54.2619 39.1226 52.0355 40.8669 50.2867C42.6112 48.538 44.8347 47.3455 47.2564 46.8598C49.6781 46.3741 52.1894 46.617 54.4732 47.5578C56.7569 48.4987 58.7106 50.0953 60.0873 52.1459C61.4641 54.1966 62.2023 56.6092 62.2085 59.0792C62.2064 62.3924 60.8893 65.5694 58.5465 67.9122C56.2037 70.2551 53.0267 71.5722 49.7134 71.5743V71.606Z" fill="white" stroke="url(#paint1_linear_153_5426)" stroke-width="0.84789" stroke-linecap="round" stroke-linejoin="round"/>
<circle cx="49.5697" cy="59.3162" r="13.0818" fill="#2A60F1"/>
<path d="M53.629 55.75L45.2091 64.1778" stroke="white" stroke-width="1.69578" stroke-linecap="round" stroke-linejoin="round"/>
<path d="M45.2091 55.75L53.629 64.1778" stroke="white" stroke-width="1.69578" stroke-linecap="round" stroke-linejoin="round"/>
<path d="M50.126 110.883C67.3165 110.883 81.2521 110.014 81.2521 108.942C81.2521 107.869 67.3165 107 50.126 107C32.9356 107 19 107.869 19 108.942C19 110.014 32.9356 110.883 50.126 110.883Z" fill="#2A60F1"/>
<defs>
<linearGradient id="paint0_linear_153_5426" x1="50.5" y1="0" x2="50.5" y2="100" gradientUnits="userSpaceOnUse">
<stop stop-color="#E3ECFA"/>
<stop offset="1" stop-color="#2A60F1"/>
</linearGradient>
<linearGradient id="paint1_linear_153_5426" x1="49.7134" y1="28" x2="49.7134" y2="104.786" gradientUnits="userSpaceOnUse">
<stop offset="0.616496" stop-color="white" stop-opacity="0"/>
<stop offset="1" stop-color="#3064F1"/>
</linearGradient>
</defs>
</svg>
