<svg width="20" height="22" viewBox="0 0 20 22" fill="none" xmlns="http://www.w3.org/2000/svg">
<path d="M3.158 10.4912C3.085 11.8872 3.169 13.3732 1.922 14.3082C1.6353 14.5227 1.40266 14.8012 1.24259 15.1215C1.08252 15.4418 0.999454 15.7951 0.999999 16.1532C0.999999 17.1502 1.782 18.0002 2.8 18.0002H17.2C18.218 18.0002 19 17.1502 19 16.1532C19 15.4272 18.658 14.7432 18.078 14.3082C16.831 13.3732 16.915 11.8872 16.842 10.4912C16.752 8.73724 15.9919 7.08486 14.7186 5.87526C13.4454 4.66565 11.7562 3.99121 10 3.99121C8.24377 3.99121 6.55462 4.66565 5.28136 5.87526C4.0081 7.08486 3.24799 8.73724 3.158 10.4912Z" fill="#2A60F1" stroke="#2A60F1" stroke-linecap="round" stroke-linejoin="round"/>
<path d="M13 18C13 18.7956 12.6839 19.5587 12.1213 20.1213C11.5587 20.6839 10.7956 21 10 21C9.20435 21 8.44129 20.6839 7.87868 20.1213C7.31607 19.5587 7 18.7956 7 18M8.5 2.125C8.5 2.953 9.172 4 10 4C10.828 4 11.5 2.953 11.5 2.125C11.5 1.297 10.828 1 10 1C9.172 1 8.5 1.297 8.5 2.125Z" stroke="#2A60F1" stroke-linecap="round" stroke-linejoin="round"/>
</svg>
