<svg width="24" height="24" viewBox="0 0 24 24" fill="none" xmlns="http://www.w3.org/2000/svg">
<path d="M5.158 11.4912C5.085 12.8872 5.169 14.3732 3.922 15.3082C3.63531 15.5227 3.40266 15.8012 3.24259 16.1215C3.08253 16.4418 2.99946 16.7951 3 17.1532C3 18.1502 3.782 19.0002 4.8 19.0002H19.2C20.218 19.0002 21 18.1502 21 17.1532C21 16.4272 20.658 15.7432 20.078 15.3082C18.831 14.3732 18.915 12.8872 18.842 11.4912C18.752 9.73724 17.9919 8.08486 16.7186 6.87526C15.4454 5.66565 13.7562 4.99121 12 4.99121C10.2438 4.99121 8.55462 5.66565 7.28136 6.87526C6.0081 8.08486 5.24799 9.73724 5.158 11.4912Z" stroke="#ACACAC" stroke-linecap="round" stroke-linejoin="round"/>
<path d="M15 19C15 19.7956 14.6839 20.5587 14.1213 21.1213C13.5587 21.6839 12.7956 22 12 22C11.2044 22 10.4413 21.6839 9.87868 21.1213C9.31607 20.5587 9 19.7956 9 19M10.5 3.125C10.5 3.953 11.172 5 12 5C12.828 5 13.5 3.953 13.5 3.125C13.5 2.297 12.828 2 12 2C11.172 2 10.5 2.297 10.5 3.125Z" stroke="#ACACAC" stroke-linecap="round" stroke-linejoin="round"/>
</svg>
