<svg width="48" height="48" viewBox="0 0 48 48" fill="none" xmlns="http://www.w3.org/2000/svg">
<rect width="48" height="48" rx="24" fill="#2A60F1" fill-opacity="0.1"/>
<path fill-rule="evenodd" clip-rule="evenodd" d="M36.8917 18.3389C36.8114 18.3342 36.7259 18.3323 36.6352 18.3332H33.0582C30.1285 18.3332 27.6224 20.6396 27.6224 23.6457C27.6224 26.6519 30.1299 28.9582 33.0582 28.9582H36.6352C36.7259 28.9592 36.8118 28.9573 36.8931 28.9526C37.4952 28.9163 38.0636 28.6623 38.4923 28.238C38.9211 27.8137 39.1809 27.248 39.2235 26.6462C39.2292 26.5612 39.2292 26.4692 39.2292 26.3842V20.9073C39.2292 20.8223 39.2292 20.7302 39.2235 20.6452C39.1809 20.0435 38.9211 19.4778 38.4923 19.0535C38.0636 18.6292 37.4938 18.3752 36.8917 18.3389ZM32.7451 25.0624C33.4987 25.0624 34.1093 24.4277 34.1093 23.6457C34.1093 22.8637 33.4987 22.2291 32.7451 22.2291C31.99 22.2291 31.3794 22.8637 31.3794 23.6457C31.3794 24.4277 31.99 25.0624 32.7451 25.0624Z" fill="#2A60F1"/>
<path fill-rule="evenodd" clip-rule="evenodd" d="M36.6338 31.0833C36.6828 31.0814 36.7316 31.091 36.7761 31.1114C36.8207 31.1318 36.8598 31.1624 36.8903 31.2008C36.9208 31.2392 36.9418 31.2842 36.9517 31.3322C36.9615 31.3802 36.9599 31.4299 36.9469 31.4772C36.6636 32.4858 36.2117 33.3472 35.4877 34.0697C34.4267 35.1322 33.0822 35.6011 31.4219 35.8249C29.8069 36.0417 27.7457 36.0417 25.1418 36.0417H22.1498C19.546 36.0417 17.4833 36.0417 15.8697 35.8249C14.2094 35.6011 12.865 35.1307 11.8039 34.0711C10.7442 33.01 10.2739 31.6656 10.0501 30.0052C9.83333 28.3902 9.83333 26.329 9.83333 23.7252V23.5665C9.83333 20.9627 9.83333 18.9 10.0501 17.285C10.2739 15.6247 10.7442 14.2802 11.8039 13.2192C12.865 12.1595 14.2094 11.6892 15.8697 11.4653C17.4847 11.25 19.546 11.25 22.1498 11.25H25.1418C27.7457 11.25 29.8083 11.25 31.4219 11.4668C33.0822 11.6906 34.4267 12.1609 35.4877 13.2206C36.2117 13.9459 36.6636 14.8058 36.9469 15.8145C36.9599 15.8618 36.9615 15.9114 36.9517 15.9595C36.9418 16.0075 36.9208 16.0525 36.8903 16.0909C36.8598 16.1292 36.8207 16.1599 36.7761 16.1803C36.7316 16.2007 36.6828 16.2103 36.6338 16.2083H33.0582C29.0391 16.2083 25.4974 19.3817 25.4974 23.6458C25.4974 27.91 29.0391 31.0833 33.0582 31.0833H36.6338ZM15.1458 16.9167C14.864 16.9167 14.5938 17.0286 14.3945 17.2279C14.1953 17.4271 14.0833 17.6974 14.0833 17.9792C14.0833 18.261 14.1953 18.5312 14.3945 18.7305C14.5938 18.9297 14.864 19.0417 15.1458 19.0417H20.8125C21.0943 19.0417 21.3645 18.9297 21.5638 18.7305C21.7631 18.5312 21.875 18.261 21.875 17.9792C21.875 17.6974 21.7631 17.4271 21.5638 17.2279C21.3645 17.0286 21.0943 16.9167 20.8125 16.9167H15.1458Z" fill="#2A60F1"/>
</svg>
