<svg width="28" height="28" viewBox="0 0 28 28" fill="none" xmlns="http://www.w3.org/2000/svg">
<circle cx="14" cy="14" r="14" fill="#3498DB" fill-opacity="0.1"/>
<path d="M7.338 7.9608C7.495 7.3618 8.041 6.9998 8.615 6.9998C8.969 6.9998 9.291 7.1328 9.536 7.3498C9.80612 7.12322 10.1474 6.99902 10.5 6.99902C10.8526 6.99902 11.1939 7.12322 11.464 7.3498C11.7175 7.12379 12.0454 6.99917 12.385 6.9998C12.959 6.9998 13.505 7.3618 13.662 7.9608C13.812 8.5328 14 9.4548 14 10.4998C14 11.0834 13.854 11.6576 13.5755 12.1704C13.2969 12.6832 12.8945 13.1182 12.405 13.4358C12.134 13.6128 12 13.8408 12 14.0358V14.4318C12 14.4545 12.0013 14.4765 12.004 14.4978C12.038 14.7458 12.161 15.6668 12.276 16.6218C12.389 17.5588 12.5 18.5808 12.5 18.9998C12.5 19.5302 12.2893 20.0389 11.9142 20.414C11.5391 20.7891 11.0304 20.9998 10.5 20.9998C9.96957 20.9998 9.46086 20.7891 9.08579 20.414C8.71071 20.0389 8.5 19.5302 8.5 18.9998C8.5 18.5798 8.611 17.5598 8.724 16.6218C8.839 15.6668 8.962 14.7458 8.996 14.4978L9 14.4318V14.0358C9 13.8408 8.866 13.6128 8.595 13.4358C8.10545 13.1182 7.7031 12.6832 7.42453 12.1704C7.14596 11.6576 7.00002 11.0834 7 10.4998C7 9.4548 7.188 8.5328 7.338 7.9608ZM12 10.9998C12 11.1324 11.9473 11.2596 11.8536 11.3534C11.7598 11.4471 11.6326 11.4998 11.5 11.4998C11.3674 11.4998 11.2402 11.4471 11.1464 11.3534C11.0527 11.2596 11 11.1324 11 10.9998V8.4998C11 8.3672 10.9473 8.24002 10.8536 8.14625C10.7598 8.05248 10.6326 7.9998 10.5 7.9998C10.3674 7.9998 10.2402 8.05248 10.1464 8.14625C10.0527 8.24002 10 8.3672 10 8.4998V10.9998C10 11.1324 9.94732 11.2596 9.85355 11.3534C9.75979 11.4471 9.63261 11.4998 9.5 11.4998C9.36739 11.4998 9.24021 11.4471 9.14645 11.3534C9.05268 11.2596 9 11.1324 9 10.9998V8.3848C9 8.2827 8.95944 8.18477 8.88724 8.11257C8.81503 8.04037 8.71711 7.9998 8.615 7.9998C8.449 7.9998 8.335 8.0988 8.305 8.2148C8.10793 8.96067 8.00546 9.72836 8 10.4998C7.99995 10.9168 8.10423 11.3273 8.30334 11.6937C8.50245 12.0601 8.79007 12.3709 9.14 12.5978C9.579 12.8828 10 13.3838 10 14.0358V14.4318C10 14.4985 9.99567 14.5651 9.987 14.6318C9.953 14.8778 9.831 15.7928 9.717 16.7418C9.601 17.7068 9.5 18.6558 9.5 18.9998C9.5 19.265 9.60536 19.5194 9.79289 19.7069C9.98043 19.8944 10.2348 19.9998 10.5 19.9998C10.7652 19.9998 11.0196 19.8944 11.2071 19.7069C11.3946 19.5194 11.5 19.265 11.5 18.9998C11.5 18.6558 11.4 17.7068 11.283 16.7408C11.169 15.7928 11.047 14.8778 11.013 14.6308C11.0054 14.5651 11.0011 14.499 11 14.4328V14.0368C11 13.3848 11.421 12.8838 11.86 12.5988C12.2101 12.3718 12.4978 12.0609 12.6969 11.6943C12.896 11.3276 13.0002 10.917 13 10.4998C13 9.5678 12.832 8.7358 12.695 8.2148C12.665 8.0998 12.55 7.9998 12.385 7.9998C12.2829 7.9998 12.185 8.04037 12.1128 8.11257C12.0406 8.18477 12 8.2827 12 8.3848V10.9998ZM15 11.4998C15 10.3063 15.4741 9.16174 16.318 8.31782C17.1619 7.47391 18.3065 6.9998 19.5 6.9998C19.6326 6.9998 19.7598 7.05248 19.8536 7.14625C19.9473 7.24002 20 7.3672 20 7.4998V13.4728L20.019 13.6498C20.0986 14.3961 20.1749 15.1428 20.248 15.8898C20.371 17.1458 20.5 18.5538 20.5 18.9998C20.5 19.5302 20.2893 20.0389 19.9142 20.414C19.5391 20.7891 19.0304 20.9998 18.5 20.9998C17.9696 20.9998 17.4609 20.7891 17.0858 20.414C16.7107 20.0389 16.5 19.5302 16.5 18.9998C16.5 18.5538 16.629 17.1458 16.752 15.8898C16.815 15.2528 16.878 14.6428 16.925 14.1908L16.945 13.9998H16C15.7348 13.9998 15.4804 13.8944 15.2929 13.7069C15.1054 13.5194 15 13.265 15 12.9998V11.4998ZM17.997 13.5528L17.976 13.7548C17.8978 14.4989 17.8218 15.2433 17.748 15.9878C17.621 17.2748 17.5 18.6178 17.5 18.9998C17.5 19.265 17.6054 19.5194 17.7929 19.7069C17.9804 19.8944 18.2348 19.9998 18.5 19.9998C18.7652 19.9998 19.0196 19.8944 19.2071 19.7069C19.3946 19.5194 19.5 19.265 19.5 18.9998C19.5 18.6168 19.379 17.2748 19.252 15.9878C19.1787 15.2432 19.1027 14.4989 19.024 13.7548L19.003 13.5538L19 13.4998V8.0348C18.1669 8.15506 17.4049 8.57156 16.854 9.20796C16.303 9.84436 15.9998 10.658 16 11.4998V12.9998H17.5C17.5701 12.9998 17.6394 13.0146 17.7035 13.0432C17.7675 13.0717 17.8248 13.1134 17.8717 13.1656C17.9186 13.2177 17.9539 13.2792 17.9755 13.3459C17.9971 13.4126 18.0044 13.4831 17.997 13.5528Z" fill="#3498DB"/>
</svg>
