<svg width="189" height="189" viewBox="0 0 189 189" fill="none" xmlns="http://www.w3.org/2000/svg">
<mask id="path-1-inside-1_31_1480" fill="white">
<path d="M163.848 147.859C177.119 130.611 183.487 109.036 181.707 87.3452C179.927 65.6549 170.129 45.4062 154.223 30.5517C138.318 15.6972 117.448 7.30313 95.6864 7.00804C73.9252 6.71296 52.835 14.538 36.5327 28.9558C20.2304 43.3736 9.88611 63.3491 7.51908 84.9832C5.15204 106.617 10.9322 128.357 23.7311 145.959C36.5301 163.561 55.4293 175.761 76.7394 180.179C98.0496 184.596 120.241 180.913 138.982 169.85L138.56 169.134C119.997 180.093 98.0159 183.741 76.9081 179.365C55.8002 174.99 37.0805 162.905 24.403 145.47C11.7255 128.036 6.00025 106.502 8.34481 85.0736C10.6894 63.6449 20.9355 43.8589 37.083 29.578C53.2305 15.2971 74.1205 7.54635 95.6751 7.83863C117.23 8.13091 137.902 16.4453 153.656 31.1588C169.411 45.8722 179.116 65.9287 180.879 87.4131C182.642 108.898 176.335 130.268 163.189 147.352L163.848 147.859Z"/>
</mask>
<path d="M163.848 147.859C177.119 130.611 183.487 109.036 181.707 87.3452C179.927 65.6549 170.129 45.4062 154.223 30.5517C138.318 15.6972 117.448 7.30313 95.6864 7.00804C73.9252 6.71296 52.835 14.538 36.5327 28.9558C20.2304 43.3736 9.88611 63.3491 7.51908 84.9832C5.15204 106.617 10.9322 128.357 23.7311 145.959C36.5301 163.561 55.4293 175.761 76.7394 180.179C98.0496 184.596 120.241 180.913 138.982 169.85L138.56 169.134C119.997 180.093 98.0159 183.741 76.9081 179.365C55.8002 174.99 37.0805 162.905 24.403 145.47C11.7255 128.036 6.00025 106.502 8.34481 85.0736C10.6894 63.6449 20.9355 43.8589 37.083 29.578C53.2305 15.2971 74.1205 7.54635 95.6751 7.83863C117.23 8.13091 137.902 16.4453 153.656 31.1588C169.411 45.8722 179.116 65.9287 180.879 87.4131C182.642 108.898 176.335 130.268 163.189 147.352L163.848 147.859Z" stroke="#E6EAF5" stroke-width="2" mask="url(#path-1-inside-1_31_1480)"/>
<path d="M152.25 150.5H151.836L151.543 150.793L149.336 153H146C145.072 153 144.182 153.369 143.525 154.025C142.869 154.682 142.5 155.572 142.5 156.5V171.5C142.5 172.428 142.869 173.318 143.525 173.975L143.525 173.975C144.182 174.631 145.072 175 146 175H166C166.928 175 167.818 174.631 168.475 173.975C169.131 173.318 169.5 172.428 169.5 171.5V156.5C169.5 155.572 169.131 154.682 168.475 154.025L167.768 154.732L168.475 154.025C167.818 153.369 166.928 153 166 153H162.664L160.457 150.793L160.164 150.5H159.75H152.25ZM152.288 160.288C153.272 159.303 154.608 158.75 156 158.75C157.392 158.75 158.728 159.303 159.712 160.288C160.697 161.272 161.25 162.608 161.25 164C161.25 165.392 160.697 166.728 159.712 167.712C158.728 168.697 157.392 169.25 156 169.25C154.608 169.25 153.272 168.697 152.288 167.712C151.303 166.728 150.75 165.392 150.75 164C150.75 162.608 151.303 161.272 152.288 160.288ZM159.359 160.641C158.468 159.75 157.26 159.25 156 159.25C154.74 159.25 153.532 159.75 152.641 160.641C151.75 161.532 151.25 162.74 151.25 164C151.25 165.26 151.75 166.468 152.641 167.359C153.532 168.25 154.74 168.75 156 168.75C157.26 168.75 158.468 168.25 159.359 167.359C160.25 166.468 160.75 165.26 160.75 164C160.75 162.74 160.25 161.532 159.359 160.641Z" stroke="#2A60F1" stroke-width="2"/>
<path fill-rule="evenodd" clip-rule="evenodd" d="M187.451 97.5504L188.95 97.5987C188.983 96.5699 189 95.5369 189 94.5C189 93.4631 188.983 92.4301 188.95 91.4013L187.451 91.4496L185.952 91.4979C185.984 92.4945 186 93.4953 186 94.5C186 95.5047 185.984 96.5055 185.952 97.5021L187.451 97.5504ZM187.059 85.3791L188.551 85.2338C188.351 83.1689 188.083 81.1234 187.751 79.0996L186.271 79.3422L184.791 79.5848C185.112 81.5442 185.371 83.5247 185.566 85.5244L187.059 85.3791ZM185.09 73.371L186.551 73.0315C186.082 71.0151 185.549 69.0234 184.954 67.0588L183.519 67.4937L182.083 67.9287C182.659 69.8304 183.175 71.7584 183.629 73.7104L185.09 73.371ZM181.563 61.7309L182.967 61.2023C182.238 59.2667 181.447 57.3614 180.597 55.4887L179.231 56.1086L177.865 56.7285C178.688 58.5414 179.454 60.3858 180.159 62.2595L181.563 61.7309ZM176.536 50.6533L177.858 49.9451C176.883 48.1241 175.85 46.3388 174.761 44.5917L173.488 45.385L172.215 46.1783C173.269 47.87 174.27 49.5985 175.214 51.3615L176.536 50.6533ZM170.102 40.3271L171.32 39.4524C170.117 37.776 168.86 36.1407 167.552 34.5489L166.393 35.5011L165.234 36.4534C166.501 37.9949 167.718 39.5785 168.883 41.2018L170.102 40.3271ZM162.378 30.9261L163.473 29.9005C162.063 28.3958 160.604 26.9373 159.099 25.5274L158.074 26.622L157.048 27.7166C158.505 29.082 159.918 30.4945 161.283 31.9517L162.378 30.9261ZM149.548 17.6797C151.224 18.883 152.859 20.1399 154.451 21.4477L153.499 22.6067L152.547 23.7657C151.005 22.4991 149.421 21.282 147.798 20.1167L148.673 18.8982L149.548 17.6797ZM143.615 15.512L144.408 14.239C142.661 13.1503 140.876 12.117 139.055 11.1417L138.347 12.4639L137.638 13.7862C139.401 14.7305 141.13 15.7309 142.822 16.7851L143.615 15.512ZM132.891 9.76859L133.511 8.40267C131.639 7.5528 129.733 6.76222 127.798 6.03335L127.269 7.43712L126.741 8.84088C128.614 9.54645 130.459 10.3118 132.272 11.1345L132.891 9.76859ZM121.506 5.48141L121.941 4.04585C119.977 3.45063 117.985 2.91766 115.968 2.44923L115.629 3.91033L115.29 5.37142C117.242 5.82487 119.17 6.3408 121.071 6.91697L121.506 5.48141ZM109.658 2.72887L109.9 1.24863C107.877 0.91691 105.831 0.649488 103.766 0.448527L103.621 1.94147L103.476 3.43442C105.475 3.62903 107.456 3.88797 109.415 4.20912L109.658 2.72887ZM97.5504 1.54907L97.5987 0.0498449C96.5699 0.0166997 95.5369 0 94.5 0C93.4631 0 92.4301 0.0166998 91.4013 0.0498451L91.4496 1.54907L91.4979 3.04829C92.4945 3.01618 93.4953 3 94.5 3C95.5047 3 96.5055 3.01618 97.5021 3.04829L97.5504 1.54907ZM85.3791 1.94147L85.2338 0.448528C83.1689 0.64949 81.1234 0.916912 79.0996 1.24863L79.3422 2.72888L79.5848 4.20912C81.5442 3.88797 83.5247 3.62903 85.5244 3.43442L85.3791 1.94147ZM73.371 3.91033L73.0315 2.44923C71.0151 2.91766 69.0234 3.45063 67.0588 4.04585L67.4937 5.48141L67.9287 6.91697C69.8304 6.3408 71.7584 5.82487 73.7104 5.37142L73.371 3.91033ZM61.7309 7.43712L61.2023 6.03335C59.2667 6.76223 57.3614 7.5528 55.4887 8.40267L56.1086 9.76859L56.7285 11.1345C58.5414 10.3118 60.3858 9.54645 62.2595 8.84089L61.7309 7.43712ZM50.6533 12.4639L49.9451 11.1417C48.1241 12.117 46.3388 13.1503 44.5917 14.239L45.385 15.512L46.1783 16.7851C47.87 15.7309 49.5985 14.7305 51.3615 13.7862L50.6533 12.4639ZM40.3271 18.8982L39.4524 17.6797C37.776 18.883 36.1407 20.1399 34.5489 21.4477L35.5011 22.6067L36.4534 23.7657C37.9949 22.4991 39.5785 21.282 41.2018 20.1167L40.3271 18.8982ZM30.9261 26.622L29.9005 25.5274C28.3958 26.9373 26.9373 28.3958 25.5274 29.9005L26.622 30.9261L27.7166 31.9517C29.082 30.4945 30.4945 29.082 31.9517 27.7166L30.9261 26.622ZM22.6067 35.5011L21.4477 34.5489C20.1399 36.1407 18.883 37.776 17.6797 39.4524L18.8982 40.3271L20.1167 41.2018C21.282 39.5785 22.4991 37.9949 23.7657 36.4534L22.6067 35.5011ZM11.1416 49.9451C12.117 48.1241 13.1503 46.3388 14.239 44.5917L15.512 45.385L16.7851 46.1783C15.7309 47.87 14.7305 49.5985 13.7862 51.3616L12.4639 50.6533L11.1416 49.9451ZM9.76859 56.1086L8.40267 55.4887C7.5528 57.3614 6.76222 59.2667 6.03335 61.2023L7.43712 61.7309L8.84088 62.2595C9.54645 60.3858 10.3118 58.5414 11.1345 56.7285L9.76859 56.1086ZM5.48141 67.4937L4.04585 67.0588C3.45063 69.0234 2.91766 71.0151 2.44923 73.0315L3.91033 73.371L5.37142 73.7104C5.82487 71.7584 6.3408 69.8304 6.91697 67.9287L5.48141 67.4937ZM2.72887 79.3422L1.24863 79.0996C0.91691 81.1234 0.649488 83.1689 0.448526 85.2338L1.94147 85.3791L3.43442 85.5244C3.62903 83.5247 3.88797 81.5442 4.20912 79.5848L2.72887 79.3422ZM0 94.5C0 93.4631 0.0166997 92.4301 0.0498448 91.4013L1.54907 91.4496L3.04829 91.4979C3.01618 92.4945 3 93.4953 3 94.5C3 95.5047 3.01618 96.5055 3.04829 97.5021L1.54907 97.5504L0.0498451 97.5987C0.0166998 96.5699 0 95.5369 0 94.5ZM1.94147 103.621L0.448528 103.766C0.64949 105.831 0.916912 107.877 1.24863 109.9L2.72888 109.658L4.20912 109.415C3.88797 107.456 3.62903 105.475 3.43442 103.476L1.94147 103.621ZM3.91033 115.629L2.44923 115.968C2.91766 117.985 3.45063 119.977 4.04585 121.941L5.48141 121.506L6.91697 121.071C6.3408 119.17 5.82487 117.242 5.37142 115.29L3.91033 115.629ZM7.43712 127.269L6.03335 127.798C6.76223 129.733 7.5528 131.639 8.40267 133.511L9.76859 132.891L11.1345 132.272C10.3118 130.459 9.54645 128.614 8.84089 126.741L7.43712 127.269ZM12.4639 138.347L11.1417 139.055C12.117 140.876 13.1503 142.661 14.239 144.408L15.512 143.615L16.7851 142.822C15.7309 141.13 14.7305 139.401 13.7862 137.638L12.4639 138.347ZM18.8982 148.673L17.6797 149.548C18.883 151.224 20.1399 152.859 21.4477 154.451L22.6067 153.499L23.7657 152.547C22.4991 151.005 21.282 149.421 20.1167 147.798L18.8982 148.673ZM26.622 158.074L25.5274 159.099C26.9373 160.604 28.3958 162.063 29.9005 163.473L30.9261 162.378L31.9517 161.283C30.4945 159.918 29.082 158.505 27.7166 157.048L26.622 158.074ZM35.5011 166.393L34.5489 167.552C36.1407 168.86 37.776 170.117 39.4524 171.32L40.3271 170.102L41.2018 168.883C39.5785 167.718 37.9949 166.501 36.4534 165.234L35.5011 166.393ZM45.385 173.488L44.5917 174.761C46.3388 175.85 48.1241 176.883 49.9451 177.858L50.6533 176.536L51.3616 175.214C49.5985 174.27 47.87 173.269 46.1783 172.215L45.385 173.488ZM56.1086 179.231L55.4887 180.597C57.3614 181.447 59.2667 182.238 61.2023 182.967L61.7309 181.563L62.2595 180.159C60.3858 179.454 58.5414 178.688 56.7285 177.865L56.1086 179.231ZM67.4937 183.519L67.0588 184.954C69.0234 185.549 71.0151 186.082 73.0315 186.551L73.371 185.09L73.7104 183.629C71.7584 183.175 69.8304 182.659 67.9287 182.083L67.4937 183.519ZM79.3422 186.271L79.0996 187.751C81.1234 188.083 83.1689 188.351 85.2338 188.551L85.3791 187.059L85.5244 185.566C83.5247 185.371 81.5442 185.112 79.5848 184.791L79.3422 186.271ZM91.4496 187.451L91.4013 188.95C92.4301 188.983 93.4631 189 94.5 189C95.5369 189 96.5699 188.983 97.5987 188.95L97.5504 187.451L97.5021 185.952C96.5055 185.984 95.5047 186 94.5 186C93.4953 186 92.4945 185.984 91.4979 185.952L91.4496 187.451ZM103.621 187.059L103.766 188.551C105.831 188.351 107.877 188.083 109.9 187.751L109.658 186.271L109.415 184.791C107.456 185.112 105.475 185.371 103.476 185.566L103.621 187.059ZM115.629 185.09L115.968 186.551C117.985 186.082 119.977 185.549 121.941 184.954L121.506 183.519L121.071 182.083C119.17 182.659 117.242 183.175 115.29 183.629L115.629 185.09ZM127.269 181.563L127.798 182.967C129.733 182.238 131.639 181.447 133.511 180.597L132.891 179.231L132.272 177.865C130.459 178.688 128.614 179.454 126.741 180.159L127.269 181.563ZM138.347 176.536L139.055 177.858C140.437 177.118 141.798 176.345 143.138 175.539C142.365 174.861 141.651 174.118 141.003 173.319C139.896 173.973 138.775 174.605 137.638 175.214L138.347 176.536ZM169.747 151.676C169.156 150.833 168.494 150.043 167.771 149.315C168.147 148.813 168.517 148.308 168.883 147.798L170.102 148.673L171.32 149.548C170.806 150.265 170.281 150.974 169.747 151.676ZM173.488 143.615L174.761 144.408C175.85 142.661 176.883 140.876 177.858 139.055L176.536 138.347L175.214 137.638C174.27 139.401 173.269 141.13 172.215 142.822L173.488 143.615ZM179.231 132.891L180.597 133.511C181.447 131.639 182.238 129.733 182.967 127.798L181.563 127.269L180.159 126.741C179.454 128.614 178.688 130.459 177.865 132.272L179.231 132.891ZM183.519 121.506L184.954 121.941C185.549 119.977 186.082 117.985 186.551 115.968L185.09 115.629L183.629 115.29C183.175 117.242 182.659 119.17 182.083 121.071L183.519 121.506ZM186.271 109.658L187.751 109.9C188.083 107.877 188.351 105.831 188.551 103.766L187.059 103.621L185.566 103.476C185.371 105.475 185.112 107.456 184.791 109.415L186.271 109.658Z" fill="#2A60F1"/>
<path d="M92.2726 92.4763L92.2304 92.469H92.2187C82.1675 91.1429 74.374 82.5162 74.374 72.094C74.374 60.7449 83.6189 51.5 94.968 51.5C106.317 51.5 115.562 60.7451 115.562 72.094C115.562 82.5262 107.752 91.1614 97.6854 92.4732L97.6752 92.4745L97.665 92.4763C96.793 92.6266 95.8847 92.6878 94.9688 92.6878C94.0529 92.6878 93.1446 92.6266 92.2726 92.4763ZM137.438 128.469C137.438 132.943 133.818 136.563 129.344 136.563H60.5938C56.1199 136.563 52.5 132.943 52.5 128.469C52.5 110.686 65.8812 95.9323 83.0889 93.766C86.6249 95.6942 90.6571 96.8125 94.969 96.8125C99.2809 96.8125 103.313 95.6942 106.849 93.766C124.056 95.9323 137.438 110.686 137.438 128.469Z" fill="#E6EAF5" stroke="#E6EAF5"/>
</svg>
