<svg width="44" height="44" viewBox="0 0 44 44" fill="none" xmlns="http://www.w3.org/2000/svg">
<path d="M26 11C26.2652 11 26.5196 11.1054 26.7071 11.2929C26.8946 11.4804 27 11.7348 27 12V13H32V19H29.981L32.727 26.545C32.9227 27.0526 33.0128 27.5948 32.9919 28.1384C32.9709 28.682 32.8392 29.2156 32.605 29.7066C32.3707 30.1976 32.0388 30.6356 31.6294 30.9939C31.2201 31.3522 30.7419 31.6233 30.2242 31.7905C29.7066 31.9577 29.1602 32.0175 28.6186 31.9664C28.077 31.9152 27.5515 31.7541 27.0743 31.4929C26.5971 31.2317 26.1782 30.8759 25.8432 30.4473C25.5082 30.0186 25.2642 29.5262 25.126 29H20.874C20.6467 29.8777 20.1282 30.6521 19.4033 31.1966C18.6784 31.7411 17.7901 32.0233 16.8839 31.9971C15.9777 31.9708 15.1072 31.6376 14.4151 31.0521C13.7229 30.4665 13.2501 29.6633 13.074 28.774C12.7499 28.6047 12.4785 28.3498 12.2891 28.0371C12.0998 27.7243 11.9998 27.3656 12 27V17C12 16.7348 12.1054 16.4804 12.2929 16.2929C12.4804 16.1054 12.7348 16 13 16H20C20.2652 16 20.5196 16.1054 20.7071 16.2929C20.8946 16.4804 21 16.7348 21 17V22C21 22.2652 21.1054 22.5196 21.2929 22.7071C21.4804 22.8946 21.7348 23 22 23H24C24.2652 23 24.5196 22.8946 24.7071 22.7071C24.8946 22.5196 25 22.2652 25 22V13H22V11H26ZM29 26C28.5747 26.0001 28.1605 26.1358 27.8176 26.3874C27.4746 26.639 27.2208 26.9934 27.093 27.399C26.9652 27.8047 26.9701 28.2405 27.1069 28.6432C27.2436 29.0459 27.5052 29.3946 27.8537 29.6385C28.2021 29.8824 28.6192 30.0088 29.0444 29.9995C29.4696 29.9902 29.8808 29.8456 30.2182 29.5866C30.5556 29.3277 30.8017 28.9679 30.9207 28.5596C31.0397 28.1513 31.0255 27.7157 30.88 27.316L30.863 27.272C30.7165 26.8971 30.4603 26.5752 30.1279 26.3483C29.7956 26.1213 29.4025 26 29 26ZM17 26C16.4696 26 15.9609 26.2107 15.5858 26.5858C15.2107 26.9609 15 27.4696 15 28C15 28.5304 15.2107 29.0391 15.5858 29.4142C15.9609 29.7893 16.4696 30 17 30C17.5304 30 18.0391 29.7893 18.4142 29.4142C18.7893 29.0391 19 28.5304 19 28C19 27.4696 18.7893 26.9609 18.4142 26.5858C18.0391 26.2107 17.5304 26 17 26ZM19 18H14V20H19V18ZM30 15H27V17H30V15Z" fill="#2A60F1"/>
<path d="M44 22C44 34.1503 34.1503 44 22 44C9.84974 44 0 34.1503 0 22C0 9.84974 9.84974 0 22 0C34.1503 0 44 9.84974 44 22ZM1.28694 22C1.28694 33.4395 10.5605 42.7131 22 42.7131C33.4395 42.7131 42.7131 33.4395 42.7131 22C42.7131 10.5605 33.4395 1.28694 22 1.28694C10.5605 1.28694 1.28694 10.5605 1.28694 22Z" fill="#2A60F1"/>
</svg>
