<svg width="48" height="48" viewBox="0 0 48 48" fill="none" xmlns="http://www.w3.org/2000/svg">
<rect width="48" height="48" rx="24" fill="white"/>
<path fill-rule="evenodd" clip-rule="evenodd" d="M19.3125 16.5187V15.25C19.3125 14.0068 19.8064 12.8145 20.6854 11.9354C21.5645 11.0564 22.7568 10.5625 24 10.5625C25.2432 10.5625 26.4355 11.0564 27.3146 11.9354C28.1936 12.8145 28.6875 14.0068 28.6875 15.25V16.5187C30.2962 16.5675 31.2812 16.74 32.0325 17.3637C33.0738 18.2287 33.3487 19.6912 33.8975 22.6175L34.835 27.6175C35.6062 31.7325 35.9912 33.79 34.8675 35.145C33.7425 36.5 31.6488 36.5 27.4625 36.5H20.5375C16.35 36.5 14.2575 36.5 13.1325 35.145C12.0075 33.79 12.395 31.7325 13.165 27.6175L14.1025 22.6175C14.6525 19.6925 14.9262 18.2287 15.9675 17.3637C16.7187 16.74 17.7037 16.5675 19.3125 16.5187ZM21.1875 15.25C21.1875 14.5041 21.4838 13.7887 22.0113 13.2613C22.5387 12.7338 23.2541 12.4375 24 12.4375C24.7459 12.4375 25.4613 12.7338 25.9887 13.2613C26.5162 13.7887 26.8125 14.5041 26.8125 15.25V16.5H21.1875V15.25Z" fill="#FBBC05"/>
</svg>
