<svg width="118" height="119" viewBox="0 0 118 119" fill="none" xmlns="http://www.w3.org/2000/svg">
<circle cx="59" cy="59.5" r="48.5" fill="#E6EAF5"/>
<circle cx="59" cy="59.5" r="53.596" stroke="#E6EAF5" stroke-opacity="0.5" stroke-width="10.192"/>
<path d="M25.8226 39.2993C25.823 39.21 25.8232 39.1707 25.8234 39.1616C25.8232 39.1782 25.8226 39.2993 25.8226 39.2993Z" fill="#D9FFFF"/>
<path d="M25.8226 39.2993C25.823 39.21 25.8232 39.1707 25.8234 39.1616C25.8232 39.1782 25.8226 39.2993 25.8226 39.2993Z" fill="#D9FFFF"/>
<path d="M91.922 39.5376C91.922 39.5376 91.9227 39.4165 91.9228 39.3999C91.9228 39.409 91.9226 39.4483 91.922 39.5376Z" fill="#D9FFFF"/>
<path d="M91.922 39.5376C91.922 39.5376 91.9227 39.4165 91.9228 39.3999C91.9228 39.409 91.9226 39.4483 91.922 39.5376Z" fill="#D9FFFF"/>
<path d="M58.9946 26.7764C51.6776 33.0955 40.0021 38.2744 27.5083 40.4809C27.5046 41.1537 27.4839 44.8809 27.3887 62.0606C27.2616 84.9781 54.3138 96.1772 58.5136 97.896C62.583 96.3858 89.9765 85.2042 90.1035 62.2867C90.1987 45.107 90.2194 41.3797 90.2231 40.7069C77.7543 38.4105 66.2412 33.1481 58.9946 26.7764Z" fill="white"/>
<path d="M58.9298 29.2617C51.3868 34.8405 40.9368 39.2254 29.4455 41.6153L29.3322 62.0565C29.2803 71.4097 33.889 79.8709 43.0309 87.2064C49.0375 92.0261 55.3529 95.0154 58.5575 96.3596C58.6953 96.3032 58.8465 96.2395 58.9954 96.1771V29.3093C58.9737 29.2934 58.951 29.2779 58.9298 29.2617Z" fill="#5798FB"/>
<path d="M58.9953 29.3091V96.1769C62.3276 94.7792 68.3846 91.8901 74.1851 87.3185C83.4074 80.0493 88.11 71.6214 88.1616 62.2682L88.275 41.8267C76.8435 39.3615 66.4707 34.9192 58.9953 29.3091Z" fill="#2A60F1"/>
<path d="M75.422 52.7637C69.8724 53.6145 62.3155 58.6463 57.5481 64.6969C56.8794 61.844 53.8774 59.2395 52.3069 58.6702L47.5485 63.4249C50.5196 64.756 53.7662 68.5274 54.1967 72.3883L58.95 73.1207C60.9542 69.1852 66.13 59.7714 76.4271 54.7096C76.2286 53.9391 75.5016 52.8736 75.422 52.7637Z" fill="white"/>
</svg>
