<svg width="48" height="48" viewBox="0 0 48 48" fill="none" xmlns="http://www.w3.org/2000/svg">
<rect width="48" height="48" rx="24" fill="#34A853" fill-opacity="0.1"/>
<path fill-rule="evenodd" clip-rule="evenodd" d="M13.6791 24.1075C13.6791 29.9925 17.946 34.0023 22.7387 34.8317C22.8691 34.8542 22.9937 34.9023 23.1055 34.9731C23.2173 35.0438 23.3141 35.1359 23.3903 35.2441C23.4665 35.3523 23.5207 35.4744 23.5497 35.6035C23.5787 35.7326 23.582 35.8661 23.5594 35.9965C23.5368 36.1269 23.4888 36.2515 23.418 36.3633C23.3472 36.4751 23.2551 36.5719 23.147 36.6481C23.0388 36.7243 22.9167 36.7784 22.7876 36.8075C22.6585 36.8365 22.525 36.8398 22.3946 36.8172C16.7667 35.8428 11.6646 31.0984 11.6646 24.1075C11.6646 21.1359 13.016 18.8005 14.5936 17.0257C15.7246 15.7535 17.018 14.7192 18.0581 13.9285H14.8952C14.6388 13.9285 14.3929 13.8266 14.2117 13.6453C14.0304 13.464 13.9285 13.2182 13.9285 12.9618C13.9285 12.7054 14.0304 12.4595 14.2117 12.2782C14.3929 12.097 14.6388 11.9951 14.8952 11.9951H20.6952C20.9516 11.9951 21.1974 12.097 21.3787 12.2782C21.56 12.4595 21.6619 12.7054 21.6619 12.9618V18.7618C21.6619 19.0182 21.56 19.264 21.3787 19.4453C21.1974 19.6266 20.9516 19.7285 20.6952 19.7285C20.4388 19.7285 20.1929 19.6266 20.0117 19.4453C19.8304 19.264 19.7285 19.0182 19.7285 18.7618V15.1929L19.7266 15.1967C18.6207 16.0281 17.2713 17.0469 16.1016 18.3635C14.7193 19.9179 13.6791 21.7991 13.6791 24.1075ZM35.1546 24.8905C35.1546 19.0673 30.9786 15.0827 26.2477 14.1933C26.1159 14.1709 25.9898 14.1225 25.8768 14.0509C25.7639 13.9793 25.6663 13.8859 25.5899 13.7762C25.5134 13.6665 25.4595 13.5426 25.4314 13.4119C25.4033 13.2811 25.4016 13.1461 25.4262 13.0146C25.4509 12.8832 25.5014 12.7579 25.575 12.6462C25.6486 12.5346 25.7436 12.4386 25.8546 12.3641C25.9657 12.2895 26.0904 12.2378 26.2217 12.2119C26.3529 12.1861 26.4879 12.1867 26.6189 12.2136C32.1753 13.2576 37.1691 17.9749 37.1691 24.8905C37.1691 27.862 35.8177 30.1955 34.2401 31.9723C33.1091 33.2444 31.8157 34.2787 30.7756 35.0695H33.9385C34.1949 35.0695 34.4408 35.1713 34.6221 35.3526C34.8034 35.5339 34.9052 35.7797 34.9052 36.0361C34.9052 36.2925 34.8034 36.5384 34.6221 36.7197C34.4408 36.9009 34.1949 37.0028 33.9385 37.0028H28.1385C27.8822 37.0028 27.6363 36.9009 27.455 36.7197C27.2737 36.5384 27.1719 36.2925 27.1719 36.0361V30.2361C27.1719 29.9797 27.2737 29.7339 27.455 29.5526C27.6363 29.3713 27.8822 29.2695 28.1385 29.2695C28.3949 29.2695 28.6408 29.3713 28.8221 29.5526C29.0034 29.7339 29.1052 29.9797 29.1052 30.2361V33.8031H29.1091C30.213 32.9679 31.5644 31.951 32.7321 30.6325C34.1145 29.08 35.1546 27.2008 35.1546 24.8905Z" fill="#34A853"/>
</svg>
